<svg version="1.1" id="Layer_1" xmlns="http://www.w3.org/2000/svg" xmlns:xlink="http://www.w3.org/1999/xlink" x="0px" y="0px"
	 width="100%" viewBox="0 0 284 309" enable-background="new 0 0 284 309" xml:space="preserve">
<path fill="none" opacity="1.000000" stroke="none" 
	d="
M157.000000,310.000000 
	C104.666679,310.000000 52.833351,310.000000 1.000021,310.000000 
	C1.000014,207.000031 1.000014,104.000053 1.000007,1.000062 
	C95.666626,1.000041 190.333252,1.000041 284.999908,1.000021 
	C284.999939,103.999939 284.999939,206.999878 284.999969,309.999908 
	C242.500000,310.000000 200.000000,310.000000 157.000000,310.000000 
M166.382660,277.860382 
	C195.714813,260.785553 225.028992,243.679642 254.410477,226.690125 
	C256.989105,225.199081 258.099670,223.671036 258.090302,220.527603 
	C257.964325,178.196182 257.968170,135.864182 258.083649,93.532715 
	C258.092072,90.440231 257.083954,88.854256 254.463913,87.337784 
	C218.033798,66.252388 181.654800,45.078377 145.329910,23.812262 
	C142.832367,22.350090 141.078232,22.425003 138.642044,23.850525 
	C102.171715,45.190872 65.657898,66.457184 29.092634,87.634384 
	C26.752556,88.989662 25.945040,90.410477 25.950541,93.086433 
	C26.038258,135.751358 25.979969,178.416626 26.131796,221.081177 
	C26.137808,222.771027 27.465752,225.190277 28.903025,226.033630 
	C65.634918,247.587036 102.446938,269.004395 139.339340,290.281860 
	C140.754059,291.097809 143.453568,290.935333 144.962311,290.125610 
	C151.994568,286.351532 158.818481,282.189301 166.382660,277.860382 
z"/>
<path fill="#63FCD7" opacity="1.000000" stroke="none" 
	d="
M166.049774,278.013123 
	C158.818481,282.189301 151.994568,286.351532 144.962311,290.125610 
	C143.453568,290.935333 140.754059,291.097809 139.339340,290.281860 
	C102.446938,269.004395 65.634918,247.587036 28.903025,226.033630 
	C27.465752,225.190277 26.137808,222.771027 26.131796,221.081177 
	C25.979969,178.416626 26.038258,135.751358 25.950541,93.086433 
	C25.945040,90.410477 26.752556,88.989662 29.092634,87.634384 
	C65.657898,66.457184 102.171715,45.190872 138.642044,23.850525 
	C141.078232,22.425003 142.832367,22.350090 145.329910,23.812262 
	C181.654800,45.078377 218.033798,66.252388 254.463913,87.337784 
	C257.083954,88.854256 258.092072,90.440231 258.083649,93.532715 
	C257.968170,135.864182 257.964325,178.196182 258.090302,220.527603 
	C258.099670,223.671036 256.989105,225.199081 254.410477,226.690125 
	C225.028992,243.679642 195.714813,260.785553 166.049774,278.013123 
M44.196949,92.721916 
	C39.003727,94.427895 37.817268,97.936264 37.858482,103.324158 
	C38.138760,139.968033 38.041359,176.615189 37.937649,213.260910 
	C37.929173,216.254639 38.696945,217.971527 41.404964,219.536240 
	C73.797249,238.252518 106.123665,257.083252 138.396912,276.004150 
	C141.027328,277.546295 142.896637,277.580261 145.550049,276.025452 
	C177.685379,257.195404 209.876511,238.460007 242.133652,219.839508 
	C245.112900,218.119720 246.084763,216.208298 246.073410,212.822464 
	C245.948425,175.510559 245.949295,138.197937 246.071884,100.886017 
	C246.083038,97.492043 245.094589,95.624496 242.093323,93.893974 
	C209.972427,75.373230 177.919174,56.734253 145.950027,37.952934 
	C142.895065,36.158207 140.793579,36.401409 137.915527,38.086296 
	C106.921944,56.230743 75.853081,74.246590 44.196949,92.721916 
z"/>
<path fill="none" opacity="1.000000" stroke="none" 
	d="
M44.500881,92.509766 
	C75.853081,74.246590 106.921944,56.230743 137.915527,38.086296 
	C140.793579,36.401409 142.895065,36.158207 145.950027,37.952934 
	C177.919174,56.734253 209.972427,75.373230 242.093323,93.893974 
	C245.094589,95.624496 246.083038,97.492043 246.071884,100.886017 
	C245.949295,138.197937 245.948425,175.510559 246.073410,212.822464 
	C246.084763,216.208298 245.112900,218.119720 242.133652,219.839508 
	C209.876511,238.460007 177.685379,257.195404 145.550049,276.025452 
	C142.896637,277.580261 141.027328,277.546295 138.396912,276.004150 
	C106.123665,257.083252 73.797249,238.252518 41.404964,219.536240 
	C38.696945,217.971527 37.929173,216.254639 37.937649,213.260910 
	C38.041359,176.615189 38.138760,139.968033 37.858482,103.324158 
	C37.817268,97.936264 39.003727,94.427895 44.500881,92.509766 
M172.917450,168.781372 
	C168.229248,159.864838 159.863358,156.447708 150.843750,153.973572 
	C143.965607,152.086853 136.926819,150.602661 130.288971,148.074387 
	C123.577560,145.518097 121.119125,140.198395 121.854256,132.768799 
	C122.415176,127.099785 126.281403,122.640160 132.756485,121.343071 
	C136.941727,120.504677 141.350616,120.315697 145.628708,120.509743 
	C153.423996,120.863312 159.925964,124.363396 165.279633,130.768875 
	C167.609451,127.727806 169.492844,125.269455 172.157257,121.791664 
	C167.767395,118.882965 164.010254,115.448250 159.587601,113.652939 
	C149.261749,109.461304 138.436417,109.312096 127.795815,112.551109 
	C117.182724,115.781754 111.362434,123.215340 110.643585,133.454025 
	C109.879860,144.331665 114.763573,152.849808 124.839035,157.570587 
	C128.121124,159.108383 131.701797,160.036743 135.188919,161.103226 
	C141.851395,163.140915 148.744720,164.584366 155.171265,167.189560 
	C162.151840,170.019333 164.658279,175.527832 163.947174,183.440933 
	C163.344818,190.143860 159.263916,194.990814 152.515976,197.018066 
	C139.134445,201.038223 125.408966,196.579880 116.922592,185.472839 
	C116.339058,184.709106 115.657745,184.020081 115.042618,183.319870 
	C106.949455,188.970108 106.576866,191.936493 113.467995,198.127029 
	C116.030411,200.428940 119.010826,202.426315 122.103104,203.947861 
	C131.881363,208.759216 142.336380,209.431168 152.809875,207.319473 
	C171.596588,203.531693 180.123352,187.386536 172.917450,168.781372 
z"/>
<path fill="#62FAD6" opacity="1.000000" stroke="none" 
	d="
M173.051819,169.137085 
	C180.123352,187.386536 171.596588,203.531693 152.809875,207.319473 
	C142.336380,209.431168 131.881363,208.759216 122.103104,203.947861 
	C119.010826,202.426315 116.030411,200.428940 113.467995,198.127029 
	C106.576866,191.936493 106.949455,188.970108 115.042618,183.319870 
	C115.657745,184.020081 116.339058,184.709106 116.922592,185.472839 
	C125.408966,196.579880 139.134445,201.038223 152.515976,197.018066 
	C159.263916,194.990814 163.344818,190.143860 163.947174,183.440933 
	C164.658279,175.527832 162.151840,170.019333 155.171265,167.189560 
	C148.744720,164.584366 141.851395,163.140915 135.188919,161.103226 
	C131.701797,160.036743 128.121124,159.108383 124.839035,157.570587 
	C114.763573,152.849808 109.879860,144.331665 110.643585,133.454025 
	C111.362434,123.215340 117.182724,115.781754 127.795815,112.551109 
	C138.436417,109.312096 149.261749,109.461304 159.587601,113.652939 
	C164.010254,115.448250 167.767395,118.882965 172.157257,121.791664 
	C169.492844,125.269455 167.609451,127.727806 165.279633,130.768875 
	C159.925964,124.363396 153.423996,120.863312 145.628708,120.509743 
	C141.350616,120.315697 136.941727,120.504677 132.756485,121.343071 
	C126.281403,122.640160 122.415176,127.099785 121.854256,132.768799 
	C121.119125,140.198395 123.577560,145.518097 130.288971,148.074387 
	C136.926819,150.602661 143.965607,152.086853 150.843750,153.973572 
	C159.863358,156.447708 168.229248,159.864838 173.051819,169.137085 
z"/>
</svg>